<svg width="25" height="24" viewBox="0 0 25 24" fill="none" xmlns="http://www.w3.org/2000/svg">
<g id="Admission" clip-path="url(#clip0_762_1231)">
<path id="Vector" d="M23.0786 10.211C23.4732 10.211 23.7929 9.89115 23.7929 9.49674V5.76451C23.7929 5.49223 23.6382 5.24375 23.3939 5.12364L13.1274 0.07341C12.9285 -0.0245514 12.6956 -0.0245514 12.4968 0.07341L2.23025 5.12364C1.98599 5.24375 1.83127 5.49223 1.83127 5.76451V9.49674C1.83127 9.89115 2.15115 10.211 2.54556 10.211H3.27469V20.0636H2.54556C2.15115 20.0636 1.83127 20.3834 1.83127 20.7779V23.2857C1.83127 23.6803 2.15115 24 2.54556 24H23.0786C23.4732 24 23.7929 23.6803 23.7929 23.2857V20.7779C23.7929 20.3834 23.4732 20.0636 23.0786 20.0636H22.3495V10.211H23.0786ZM3.25967 6.20908L12.8121 1.51024L22.3645 6.20908V8.78245H3.25967V6.20908ZM15.1527 20.0636V10.211H17.6684V20.0636H15.1527ZM10.4715 10.211V20.0636H7.95577V10.211H10.4715ZM11.8999 10.211H13.7241V20.0636H11.8999V10.211ZM4.70309 10.211H6.52737V20.0636H4.70309V10.211ZM22.3645 22.5716H3.25967V21.4921H22.3645V22.5716ZM20.9211 20.0636H19.0968V10.211H20.9211V20.0636Z" fill="#47B359"/>
<path id="Vector_2" d="M16.6663 4.25629H8.95792C8.56351 4.25629 8.2438 4.57599 8.2438 4.9704V7.30279C8.2438 7.6972 8.56351 8.01709 8.95792 8.01709H16.6663C17.0607 8.01709 17.3804 7.6972 17.3804 7.30279V4.9704C17.3804 4.57599 17.0607 4.25629 16.6663 4.25629ZM15.952 6.58868H9.67221V5.68469H15.952V6.58868Z" fill="#47B359"/>
</g>
<defs>
<clipPath id="clip0_762_1231">
<rect width="24" height="24" fill="white" transform="translate(0.800018)"/>
</clipPath>
</defs>
</svg>
