<svg width="24" height="24" viewBox="0 0 24 24" fill="none" xmlns="http://www.w3.org/2000/svg">
<g id="Batch processing">
<g id="Group">
<path id="Vector" d="M22.1066 5.73727C21.9747 5.60536 21.7959 5.53125 21.6094 5.53125H19.4997L19.5 3.42197C19.5 3.23545 19.426 3.05663 19.2941 2.92477C19.1622 2.79291 18.9834 2.71875 18.7969 2.71875H16.6872L16.6875 0.703219C16.6875 0.516703 16.6134 0.337875 16.4816 0.206016C16.3497 0.0741094 16.1709 0 15.9844 0H2.39062C2.00231 0 1.6875 0.314812 1.6875 0.703125V17.7656C1.6875 18.1539 2.00231 18.4688 2.39062 18.4688H4.5V20.4844C4.5 20.8727 4.81481 21.1875 5.20312 21.1875H7.3125V23.2969C7.3125 23.6852 7.62731 24 8.01562 24H21.6069C21.9952 24 22.31 23.6852 22.31 23.297L22.3125 6.23447C22.3125 6.04795 22.2384 5.86912 22.1066 5.73727ZM3.09375 17.0625V1.40625H15.2812L15.281 2.71875H5.20312C4.81481 2.71875 4.5 3.03356 4.5 3.42188V17.0625H3.09375ZM5.90625 19.7812V4.125H18.0937L18.0934 5.53125H8.01562C7.62731 5.53125 7.3125 5.84606 7.3125 6.23438V19.7812H5.90625ZM20.9039 22.5938H8.71875V6.9375H20.9062L20.9039 22.5938Z" fill="#CC711E"/>
<path id="Vector_2" d="M11.7558 17.6368C11.8915 17.6368 12.0257 17.5975 12.1413 17.5217L12.6456 17.1911C12.9721 16.9774 13.0623 16.5365 12.8445 16.2125C13.9285 14.7578 16.2413 14.9742 17.034 16.6198C17.2046 16.9685 17.6256 17.1129 17.9746 16.9423C18.3233 16.7716 18.4677 16.3505 18.2971 16.0017C17.6508 14.6808 16.283 13.8273 14.8125 13.8273C13.4789 13.8139 12.1773 14.5523 11.4962 15.6926C10.9836 15.671 10.6114 16.2557 10.8565 16.7117L11.128 17.2502C11.2439 17.4845 11.4946 17.6387 11.7558 17.6368Z" fill="#CC711E"/>
<path id="Vector_3" d="M18.4971 18.163C18.3217 17.7947 17.8195 17.6602 17.4837 17.8915L16.9794 18.2221C16.653 18.4358 16.5628 18.8767 16.7806 19.2007C15.7161 20.6405 13.3941 20.4491 12.6041 18.8197C12.4293 18.4729 12.0066 18.3335 11.6597 18.5083C11.313 18.6831 11.1736 19.1059 11.3484 19.4526C12.6913 22.1654 16.5767 22.3079 18.1289 19.7205C18.6414 19.743 19.0135 19.1568 18.7685 18.7014C18.7685 18.7014 18.4971 18.163 18.4971 18.163Z" fill="#CC711E"/>
<path id="Vector_4" d="M10.8292 9.74994H18.7959C19.1842 9.74994 19.499 9.43513 19.499 9.04681C19.499 8.6585 19.1842 8.34369 18.7959 8.34369H10.8292C9.89972 8.37711 9.89569 9.71483 10.8292 9.74994Z" fill="#CC711E"/>
<path id="Vector_5" d="M12.0238 12.5624H17.6012C17.9895 12.5624 18.3043 12.2476 18.3043 11.8593C18.3043 11.471 17.9895 11.1562 17.6012 11.1562H12.0238C11.0937 11.1899 11.091 12.5276 12.0238 12.5624Z" fill="#CC711E"/>
</g>
</g>
</svg>
