<svg width="25" height="24" viewBox="0 0 25 24" fill="none" xmlns="http://www.w3.org/2000/svg">
<g id="Money bag">
<g id="Group">
<g id="Group_2">
<path id="Vector" d="M12.3999 14.8594C12.0122 14.8594 11.6968 14.544 11.6968 14.1562C11.6968 13.873 11.8653 13.6187 12.1261 13.5082C12.441 13.3749 12.8178 13.4887 13.1601 13.8203C13.439 14.0905 13.8842 14.0835 14.1544 13.8046C14.4246 13.5257 14.4175 13.0806 14.1386 12.8104C13.8212 12.5029 13.4683 12.2855 13.103 12.1628V11.3438C13.103 10.9554 12.7882 10.6406 12.3999 10.6406C12.0116 10.6406 11.6968 10.9554 11.6968 11.3438V12.1674C11.6569 12.1816 11.6172 12.1966 11.5777 12.2133C10.7958 12.5445 10.2905 13.3071 10.2905 14.1562C10.2905 15.3194 11.2368 16.2656 12.3999 16.2656C12.7876 16.2656 13.103 16.581 13.103 16.9688C13.103 17.2634 12.9172 17.5291 12.6406 17.6298C12.2794 17.7613 11.859 17.583 11.4872 17.1402C11.2374 16.8428 10.7939 16.8043 10.4966 17.054C10.1992 17.3038 10.1606 17.7473 10.4104 18.0446C10.7905 18.4972 11.2329 18.8076 11.6968 18.9637V19.7812C11.6968 20.1696 12.0117 20.4844 12.4 20.4844C12.7883 20.4844 13.1031 20.1696 13.1031 19.7812V18.9575C13.1094 18.9553 13.1157 18.9534 13.1219 18.9511C13.9517 18.6489 14.5093 17.8522 14.5093 16.9688C14.5093 15.8056 13.563 14.8594 12.3999 14.8594Z" fill="#F4492D"/>
</g>
</g>
<g id="Group_3">
<g id="Group_4">
<path id="Vector_2" d="M18.9117 10.559C18.0761 9.53091 17.1207 8.71181 16.0721 8.12278C16.2438 7.91958 16.3793 7.68131 16.4668 7.41577C16.8102 6.37003 16.3086 5.12784 15.0283 4.72317L16.8231 1.59356C17.0496 1.19859 16.8462 0.695531 16.4095 0.568594C15.1118 0.191297 13.7629 0 12.3999 0C11.037 0 9.68801 0.191297 8.39032 0.568594C7.95317 0.695672 7.75053 1.19906 7.9767 1.59356L9.7715 4.72322C8.49626 5.12583 7.98832 6.36619 8.33318 7.41633C8.42042 7.68117 8.55589 7.9193 8.72815 8.12259C7.67932 8.71163 6.72392 9.53081 5.88814 10.559C4.21746 12.6143 3.25929 15.2069 3.25929 17.6719C3.25929 22.7855 7.33962 24 12.3999 24C17.4638 24 21.5405 22.7835 21.5405 17.6719C21.5405 15.2069 20.5824 12.6143 18.9117 10.559ZM9.65754 1.69772C10.5546 1.50408 11.4736 1.40625 12.3999 1.40625C13.3263 1.40625 14.2452 1.50408 15.1423 1.69772L13.5939 4.39781C12.8008 4.28709 11.9993 4.28714 11.206 4.39786L9.65754 1.69772ZM10.1169 6.08887C11.327 5.69194 12.593 5.6167 13.8238 5.86275C13.8252 5.86303 13.8267 5.86331 13.8282 5.86359C14.1151 5.92116 14.4 5.99606 14.6819 6.08855C15.0504 6.21 15.2518 6.60858 15.131 6.97641C15.0432 7.2428 14.8114 7.42627 14.5387 7.45598C13.8377 7.23647 13.1226 7.125 12.3999 7.125C11.6787 7.125 10.965 7.236 10.2653 7.45463C9.98843 7.42613 9.75607 7.24134 9.66903 6.97706C9.54804 6.60858 9.74942 6.20995 10.1169 6.08887ZM12.3999 22.6031C6.90636 22.6031 4.66554 21.1678 4.66554 17.6719C4.66554 15.5558 5.53053 13.2285 6.97929 11.446C8.50718 9.56639 10.4322 8.53125 12.3999 8.53125C14.5658 8.53125 16.4603 9.77259 17.8205 11.446C19.2693 13.2285 20.1343 15.5558 20.1343 17.6719C20.1343 21.1678 17.8935 22.6031 12.3999 22.6031Z" fill="#F4492D"/>
</g>
</g>
</g>
</svg>
