<svg width="25" height="24" viewBox="0 0 25 24" fill="none" xmlns="http://www.w3.org/2000/svg">
<g id="Graduation hat" clip-path="url(#clip0_762_1229)">
<path id="Vector" d="M24.5979 22.2586L24.237 17.567C24.1674 16.6608 23.5485 15.9096 22.725 15.6315V6.37501C22.725 6.09882 22.5634 5.84827 22.3117 5.73441L11.9524 1.04691C11.7681 0.96357 11.5569 0.96357 11.3726 1.04691L1.01327 5.73441C0.761647 5.84827 0.599976 6.09882 0.599976 6.37501C0.599976 6.65119 0.761647 6.90174 1.01323 7.0156L3.9281 8.33452V14.0797C3.9281 14.4426 4.07473 14.9807 4.77321 15.4831C5.19007 15.7829 5.76635 16.046 6.48602 16.2649C7.87854 16.6885 9.71693 16.9219 11.6625 16.9219C13.608 16.9219 15.4464 16.6885 16.839 16.2649C17.5586 16.046 18.1349 15.783 18.5517 15.4831C19.2502 14.9807 19.3969 14.4426 19.3969 14.0797V8.33452L21.3187 7.4649V15.6315C20.4952 15.9096 19.8763 16.6607 19.8067 17.5669L19.4458 22.2586C19.4308 22.4538 19.4979 22.6465 19.6309 22.7902C19.764 22.9339 19.951 23.0156 20.1469 23.0156H23.8969C24.0927 23.0156 24.2797 22.9339 24.4128 22.7903C24.5458 22.6465 24.6129 22.4538 24.5979 22.2586ZM11.6625 2.45926L18.7624 5.67188H11.6625C11.2742 5.67188 10.9594 5.98669 10.9594 6.37501C10.9594 6.76332 11.2742 7.07813 11.6625 7.07813H18.7624L11.6625 10.2908L3.00869 6.37501L11.6625 2.45926ZM17.9906 14.0757C17.965 14.1708 17.6081 14.5852 16.2755 14.9649C15.0293 15.3201 13.391 15.5156 11.6625 15.5156C9.93391 15.5156 8.29563 15.3201 7.04946 14.9649C5.7168 14.5852 5.35999 14.1708 5.33435 14.0757V8.97085L11.3726 11.7031C11.4647 11.7448 11.5636 11.7656 11.6625 11.7656C11.7614 11.7656 11.8602 11.7448 11.9524 11.7031L17.9906 8.97085V14.0757ZM20.9061 21.6094L21.2088 17.6748C21.2413 17.2526 21.5984 16.9219 22.0219 16.9219C22.4453 16.9219 22.8024 17.2526 22.8349 17.6748L23.1376 21.6094H20.9061Z" fill="#1F69D8"/>
</g>
<defs>
<clipPath id="clip0_762_1229">
<rect width="24" height="24" fill="white" transform="translate(0.599976)"/>
</clipPath>
</defs>
</svg>
