<?xml version="1.0" encoding="utf-8"?>
<!-- Generator: Adobe Illustrator 24.0.1, SVG Export Plug-In . SVG Version: 6.00 Build 0)  -->
<svg version="1.1" id="Layer_1" xmlns="http://www.w3.org/2000/svg" xmlns:xlink="http://www.w3.org/1999/xlink" x="0px" y="0px"
	 viewBox="0 0 200 35" style="enable-background:new 0 0 200 35;" xml:space="preserve">
<style type="text/css">
	.st0{fill:#E6E6E6;}
	.st1{fill:#66B821;}
</style>
<g>
	<g>
		<g id="XMLID_269_">
			<path id="XMLID_323_" class="st0" d="M45.4,32c-0.3,0.1-0.9,0.3-1.8,0.3c-2.4,0-3.7-1.5-3.7-3.5c0-2.4,1.7-3.7,3.8-3.7
				c0.8,0,1.4,0.2,1.7,0.3l-0.3,1.3c-0.3-0.1-0.8-0.3-1.3-0.3c-1.3,0-2.2,0.8-2.2,2.3c0,1.4,0.8,2.3,2.2,2.3c0.5,0,1-0.1,1.3-0.2
				L45.4,32z"/>
			<path id="XMLID_320_" class="st0" d="M52.6,28.7c0,2.3-1.4,3.7-3.4,3.7c-2.1,0-3.3-1.6-3.3-3.6c0-2.1,1.3-3.7,3.4-3.7
				C51.4,25.1,52.6,26.7,52.6,28.7z M47.5,28.7c0,1.4,0.6,2.3,1.7,2.3c1.1,0,1.7-1,1.7-2.4c0-1.3-0.6-2.3-1.7-2.3
				C48.1,26.4,47.5,27.4,47.5,28.7z"/>
			<path id="XMLID_318_" class="st0" d="M59.5,29.5c0-0.8-0.1-1.9-0.1-2.9h0c-0.2,0.9-0.5,1.9-0.8,2.7l-0.9,2.7h-1.2l-0.7-2.7
				c-0.2-0.8-0.5-1.8-0.6-2.7h0c0,0.9-0.1,2-0.1,2.9l-0.1,2.7h-1.5l0.4-7H56l0.7,2.3c0.2,0.8,0.4,1.7,0.6,2.5h0
				c0.2-0.8,0.4-1.7,0.7-2.5l0.7-2.3h2.1l0.4,7h-1.5L59.5,29.5z"/>
			<path id="XMLID_315_" class="st0" d="M62.4,25.3c0.5-0.1,1.2-0.1,2.1-0.1c1,0,1.7,0.2,2.1,0.6c0.4,0.4,0.7,0.9,0.7,1.6
				c0,0.7-0.2,1.3-0.6,1.7c-0.5,0.5-1.3,0.7-2.3,0.7c-0.2,0-0.4,0-0.5,0v2.5h-1.6V25.3z M63.9,28.5c0.1,0,0.3,0,0.5,0
				c0.8,0,1.4-0.4,1.4-1.1c0-0.6-0.4-1-1.2-1c-0.3,0-0.5,0-0.7,0.1V28.5z"/>
			<path id="XMLID_313_" class="st0" d="M70,25.2v4c0,1.2,0.5,1.8,1.3,1.8c0.8,0,1.3-0.6,1.3-1.8v-4h1.6v3.9c0,2.2-1.1,3.2-2.9,3.2
				c-1.8,0-2.8-1-2.8-3.2v-3.9H70z"/>
			<path id="XMLID_311_" class="st0" d="M76.8,26.6h-1.9v-1.3h5.4v1.3h-1.9v5.7h-1.6V26.6z"/>
			<path id="XMLID_309_" class="st0" d="M85.3,29.3h-2.6v1.7h2.9v1.3h-4.5v-7h4.3v1.3h-2.7V28h2.6V29.3z"/>
			<path id="XMLID_306_" class="st0" d="M86.7,25.3c0.5-0.1,1.3-0.1,2.1-0.1c1,0,1.8,0.2,2.3,0.5c0.4,0.3,0.6,0.8,0.6,1.5
				c0,0.9-0.6,1.5-1.2,1.7v0c0.5,0.2,0.8,0.7,0.9,1.3c0.2,0.8,0.4,1.7,0.6,2h-1.6c-0.1-0.2-0.3-0.8-0.5-1.6
				c-0.2-0.9-0.5-1.1-1.1-1.1h-0.5v2.7h-1.6V25.3z M88.2,28.3h0.6c0.8,0,1.3-0.4,1.3-1c0-0.6-0.4-1-1.2-1c-0.4,0-0.6,0-0.7,0.1V28.3
				z"/>
			<path id="XMLID_304_" class="st0" d="M97.9,26.6h-1.9v-1.3h5.4v1.3h-1.9v5.7h-1.6V26.6z"/>
			<path id="XMLID_301_" class="st0" d="M102.3,25.3c0.5-0.1,1.3-0.1,2.1-0.1c1,0,1.8,0.2,2.3,0.5c0.4,0.3,0.6,0.8,0.6,1.5
				c0,0.9-0.6,1.5-1.2,1.7v0c0.5,0.2,0.8,0.7,0.9,1.3c0.2,0.8,0.4,1.7,0.6,2h-1.6c-0.1-0.2-0.3-0.8-0.5-1.6
				c-0.2-0.9-0.5-1.1-1.1-1.1h-0.5v2.7h-1.6V25.3z M103.8,28.3h0.6c0.8,0,1.3-0.4,1.3-1c0-0.6-0.4-1-1.2-1c-0.4,0-0.6,0-0.7,0.1
				V28.3z"/>
			<path id="XMLID_298_" class="st0" d="M110.1,30.4l-0.5,1.8H108l2.1-7h2.1l2.2,7h-1.7l-0.5-1.8H110.1z M111.9,29.2l-0.4-1.5
				c-0.1-0.4-0.2-0.9-0.4-1.3h0c-0.1,0.4-0.2,0.9-0.3,1.3l-0.4,1.5H111.9z"/>
			<path id="XMLID_296_" class="st0" d="M116.9,25.2v7h-1.6v-7H116.9z"/>
			<path id="XMLID_294_" class="st0" d="M118.3,32.2v-7h1.8l1.5,2.6c0.4,0.7,0.8,1.6,1.1,2.4h0c-0.1-0.9-0.1-1.9-0.1-2.9v-2h1.5v7
				h-1.7l-1.5-2.7c-0.4-0.7-0.9-1.6-1.2-2.5l0,0c0,0.9,0.1,1.9,0.1,3v2.1H118.3z"/>
			<path id="XMLID_292_" class="st0" d="M127,25.2v7h-1.6v-7H127z"/>
			<path id="XMLID_290_" class="st0" d="M128.4,32.2v-7h1.8l1.5,2.6c0.4,0.7,0.8,1.6,1.1,2.4h0c-0.1-0.9-0.1-1.9-0.1-2.9v-2h1.5v7
				h-1.7l-1.5-2.7c-0.4-0.7-0.9-1.6-1.2-2.5l0,0c0,0.9,0.1,1.9,0.1,3v2.1H128.4z"/>
			<path id="XMLID_288_" class="st0" d="M141.4,31.9c-0.5,0.2-1.4,0.4-2.3,0.4c-1.3,0-2.2-0.3-2.8-0.9c-0.6-0.6-1-1.5-1-2.5
				c0-2.3,1.7-3.7,4-3.7c0.9,0,1.6,0.2,1.9,0.3l-0.3,1.3c-0.4-0.2-0.9-0.3-1.6-0.3c-1.3,0-2.3,0.7-2.3,2.3c0,1.4,0.9,2.3,2.2,2.3
				c0.4,0,0.7,0,0.8-0.1v-1.5h-1.1v-1.2h2.6V31.9z"/>
			<path id="XMLID_286_" class="st0" d="M148.4,25.2v7h-1.6v-7H148.4z"/>
			<path id="XMLID_284_" class="st0" d="M149.7,32.2v-7h1.8l1.5,2.6c0.4,0.7,0.8,1.6,1.1,2.4h0c-0.1-0.9-0.1-1.9-0.1-2.9v-2h1.5v7
				h-1.7l-1.5-2.7c-0.4-0.7-0.9-1.6-1.2-2.5l0,0c0,0.9,0.1,1.9,0.1,3v2.1H149.7z"/>
			<path id="XMLID_282_" class="st0" d="M156.9,30.6c0.4,0.2,1.1,0.4,1.8,0.4c0.7,0,1.1-0.3,1.1-0.8c0-0.4-0.3-0.7-1.2-1
				c-1.2-0.4-1.9-1-1.9-2.1c0-1.2,1-2.1,2.6-2.1c0.8,0,1.4,0.2,1.8,0.4l-0.4,1.3c-0.3-0.1-0.8-0.3-1.5-0.3c-0.7,0-1,0.3-1,0.7
				c0,0.4,0.4,0.6,1.3,1c1.2,0.5,1.8,1.1,1.8,2.1c0,1.2-0.9,2.2-2.8,2.2c-0.8,0-1.6-0.2-2-0.4L156.9,30.6z"/>
			<path id="XMLID_280_" class="st0" d="M163.8,26.6H162v-1.3h5.4v1.3h-1.9v5.7h-1.6V26.6z"/>
			<path id="XMLID_278_" class="st0" d="M169.7,25.2v7h-1.6v-7H169.7z"/>
			<path id="XMLID_276_" class="st0" d="M172.5,26.6h-1.9v-1.3h5.4v1.3H174v5.7h-1.6V26.6z"/>
			<path id="XMLID_274_" class="st0" d="M178.4,25.2v4c0,1.2,0.5,1.8,1.3,1.8c0.8,0,1.3-0.6,1.3-1.8v-4h1.6v3.9
				c0,2.2-1.1,3.2-2.9,3.2c-1.8,0-2.8-1-2.8-3.2v-3.9H178.4z"/>
			<path id="XMLID_272_" class="st0" d="M185.2,26.6h-1.9v-1.3h5.4v1.3h-1.9v5.7h-1.6V26.6z"/>
			<path id="XMLID_270_" class="st0" d="M193.7,29.3h-2.6v1.7h2.9v1.3h-4.5v-7h4.3v1.3h-2.7V28h2.6V29.3z"/>
		</g>
		<g>
			<path class="st1" d="M47.4,11.8v4.6h-1.5v4.1h-5.3V9.4c0-2.1,0.6-3.8,1.8-5s2.9-1.8,5.1-1.8c2.1,0,3.7,0.5,4.7,1.6
				c1,1.1,1.5,2.7,1.5,5v11.3h-5.3V9.6c0-0.7-0.1-1.2-0.2-1.4c-0.2-0.3-0.5-0.4-0.9-0.4c-0.8,0-1.2,0.6-1.2,1.8v2.2H47.4z"/>
			<path class="st1" d="M56.5,3.1h5.3v10.3c0,0.8,0.1,1.3,0.4,1.6c0.3,0.3,0.8,0.4,1.6,0.4H64v5.1h-1.4c-1.9,0-3.5-0.6-4.5-1.7
				c-1.1-1.1-1.6-2.6-1.6-4.6V3.1z"/>
			<path class="st1" d="M70,11.1v3.4h-6v-3.4H70z"/>
			<path class="st1" d="M71.5,20.5V8c0-1.6,0.5-2.8,1.5-3.8c1-1,2.2-1.5,3.8-1.5c1.8,0,3.3,0.8,4.2,2.5c0.6-0.9,1.3-1.5,1.9-1.9
				c0.7-0.4,1.5-0.6,2.6-0.6c1.6,0,2.8,0.5,3.7,1.5c0.9,1,1.3,2.4,1.3,4.3v12.1h-5.3V9.2c0-0.6,0-0.9-0.1-1.1
				c-0.1-0.2-0.3-0.3-0.6-0.3c-0.5,0-0.8,0.4-0.8,1.3v11.4h-5.3V9.2c0-0.6,0-0.9-0.1-1.1c-0.1-0.2-0.3-0.3-0.6-0.3
				c-0.5,0-0.8,0.5-0.8,1.4v11.3H71.5z"/>
			<path class="st1" d="M100.2,11.8v4.6h-1.5v4.1h-5.3V9.4c0-2.1,0.6-3.8,1.8-5s2.9-1.8,5.1-1.8c2.1,0,3.7,0.5,4.7,1.6
				c1,1.1,1.5,2.7,1.5,5v11.3H101V9.6c0-0.7-0.1-1.2-0.2-1.4c-0.2-0.3-0.5-0.4-0.9-0.4c-0.8,0-1.2,0.6-1.2,1.8v2.2H100.2z"/>
			<path class="st1" d="M114.9,8.1v12.4h-5.3V3.1h6.9c3,0,5.4,0.7,7.2,2c2,1.6,3.1,3.8,3.1,6.5c0,2.6-0.9,4.8-2.6,6.5
				c-1.8,1.7-4,2.5-6.8,2.5c-0.3,0-0.9,0-1.6-0.1v-5.1h0.9c3.1,0,4.7-1.3,4.7-3.8c0-2.4-1.5-3.6-4.6-3.6H114.9z"/>
			<path class="st1" d="M134.6,3.1v17.4h-5.3V3.1H134.6z"/>
			<path class="st1" d="M137.9,20.5V9.2c0-2,0.6-3.6,1.8-4.8c1.2-1.2,2.8-1.8,4.9-1.8c2,0,3.6,0.6,4.6,1.7s1.6,2.8,1.6,5v11.1h-5.3
				V9.4c0-1.1-0.4-1.6-1.2-1.6c-0.8,0-1.1,0.5-1.1,1.6v11.1H137.9z"/>
			<path class="st1" d="M160.6,11.8v4.6H159v4.1h-5.3V9.4c0-2.1,0.6-3.8,1.8-5c1.2-1.2,2.9-1.8,5.1-1.8c2.1,0,3.7,0.5,4.7,1.6
				c1,1.1,1.5,2.7,1.5,5v11.3h-5.3V9.6c0-0.7-0.1-1.2-0.2-1.4c-0.2-0.3-0.5-0.4-0.9-0.4c-0.8,0-1.2,0.6-1.2,1.8v2.2H160.6z"/>
			<path class="st1" d="M182,3.1v17.4h-5.3V3.1H182z"/>
			<path class="st1" d="M193.4,8.1v12.4h-5.3V8.1H184v-5h13.5v5H193.4z"/>
		</g>
	</g>
	<g>
		<path class="st1" d="M17.1,2.4C9,2.4,2.5,8.9,2.5,17c0,0,0,0.1,0,0.1h14.6V2.4z"/>
		<path class="st1" d="M17.1,32.6c-0.1-8-6.6-14.5-14.6-14.5v14.5H17.1z"/>
		<path class="st1" d="M18.2,18.1v14.5c8,0,14.5-6.5,14.6-14.5H18.2z"/>
		<path class="st0" d="M32.8,17c0-8.1-6.5-14.6-14.6-14.6v14.7h14.6C32.8,17,32.8,17,32.8,17z"/>
	</g>
</g>
</svg>
