<svg width="25" height="24" viewBox="0 0 25 24" fill="none" xmlns="http://www.w3.org/2000/svg">
<g id="Income" clip-path="url(#clip0_762_1278)">
<g id="Group">
<path id="Vector" d="M14.516 5.88971L16.1605 7.1063C16.3456 7.24322 16.252 7.54622 16.018 7.54768L15.5019 7.55082C15.5014 7.55082 15.501 7.55082 15.5004 7.55082C15.3677 7.55082 15.2593 7.44338 15.2585 7.31063C15.2561 6.92232 14.9396 6.60868 14.5511 6.61186C14.1628 6.61425 13.8499 6.93099 13.8523 7.3193C13.8569 8.06953 14.3649 8.70066 15.0533 8.895V8.92903C15.0533 9.31735 15.3682 9.63216 15.7564 9.63216C16.1447 9.63216 16.4595 9.31735 16.4595 8.92903V8.89355C16.7334 8.81761 16.9842 8.67155 17.1893 8.4638C17.4988 8.15039 17.6677 7.73527 17.6646 7.29375V7.28935C17.6611 6.77363 17.4114 6.28257 16.9968 5.97582L15.3524 4.75927C15.1656 4.62108 15.2637 4.32333 15.4964 4.32333H16.0132C16.1467 4.32333 16.2552 4.43175 16.2552 4.56502C16.2552 4.95333 16.57 5.26814 16.9583 5.26814C17.3466 5.26814 17.6614 4.95333 17.6614 4.56502C17.6614 3.81103 17.152 3.1741 16.4595 2.979V2.94516C16.4595 2.55685 16.1446 2.24203 15.7564 2.24203C15.3681 2.24203 15.0533 2.55685 15.0533 2.94516V2.97807C14.3591 3.17208 13.8481 3.80982 13.8481 4.56502C13.8482 5.0851 14.0978 5.58029 14.516 5.88971Z" fill="#28ABAB"/>
<path id="Vector_2" d="M15.7564 11.8741C19.031 11.8741 21.695 9.2108 21.695 5.93705C21.695 2.6633 19.031 0 15.7564 0C12.4819 0 9.81783 2.66334 9.81783 5.93709C9.81783 9.21084 12.4819 11.8741 15.7564 11.8741ZM15.7564 1.40625C18.2556 1.40625 20.2888 3.4388 20.2888 5.93709C20.2888 8.43539 18.2556 10.4679 15.7564 10.4679C13.2573 10.4679 11.224 8.43539 11.224 5.93709C11.224 3.4388 13.2573 1.40625 15.7564 1.40625Z" fill="#28ABAB"/>
<path id="Vector_3" d="M23.7165 13.4619C22.956 12.4828 21.5831 12.2987 20.5949 12.9842L17.9197 14.774C17.5479 14.0818 16.817 13.6099 15.9777 13.6099H14.0693C13.1061 12.7065 11.82 12.1935 10.4936 12.1935C9.498 12.1935 8.52951 12.4748 7.69294 13.0069C6.93914 13.4864 6.32254 14.1487 5.89884 14.9307L5.54062 15.1497L5.44781 14.8783C5.32219 14.5109 4.92262 14.3148 4.55522 14.4404L0.675888 15.7659C0.308623 15.8914 0.11231 16.2913 0.237935 16.6588L2.58511 23.5242C2.71078 23.8918 3.11048 24.0875 3.4777 23.9621L7.35703 22.6366C7.70348 22.5182 7.93045 22.1401 7.7872 21.721L13.9429 21.5305C15.6193 21.5282 17.2269 21.0134 18.5924 20.0415L23.2346 16.7395C24.2988 15.982 24.5185 14.4938 23.7165 13.4619ZM3.68826 22.4041L1.79601 16.8693L4.34465 15.9984C4.6192 16.8015 5.95354 20.7044 6.2369 21.5333L3.68826 22.4041ZM22.4194 15.5936L17.7772 18.8956C16.648 19.6994 15.3182 20.1242 13.9317 20.1242C13.9245 20.1242 13.9172 20.1243 13.91 20.1245L7.31123 20.3288L6.0067 16.513L6.79959 16.0281C6.79978 16.028 6.79992 16.0279 6.80011 16.0277C6.91683 15.9563 7.00809 15.8515 7.06378 15.738C7.71089 14.419 9.02512 13.5997 10.4936 13.5997C11.5547 13.5997 12.5403 14.0245 13.2688 14.7959C13.403 14.938 13.5957 15.016 13.78 15.016H15.9777C16.417 15.016 16.7744 15.3732 16.7744 15.8123C16.7744 16.2468 16.4229 16.6086 15.9777 16.6086H12.0107C11.6224 16.6086 11.3076 16.9234 11.3076 17.3117C11.3076 17.7 11.6224 18.0148 12.0107 18.0148H15.9777C16.5666 18.0148 17.1198 17.7855 17.5351 17.3696C17.8256 17.0792 18.0247 16.7219 18.1186 16.3327L21.3821 14.1494C21.3861 14.1467 21.39 14.1441 21.3938 14.1414C21.7787 13.8725 22.3117 13.9457 22.6061 14.3246C22.9164 14.724 22.8316 15.3002 22.4194 15.5936Z" fill="#28ABAB"/>
</g>
</g>
<defs>
<clipPath id="clip0_762_1278">
<rect width="24" height="24" fill="white" transform="translate(0.199966)"/>
</clipPath>
</defs>
</svg>
